<svg width="30" height="30" viewBox="0 0 30 30" fill="white" xmlns="http://www.w3.org/2000/svg">
<path d="M15 0C12.0333 0 9.13319 0.879734 6.66645 2.52796C4.19972 4.17618 2.27713 6.51886 1.14181 9.25975C0.00649929 12.0006 -0.290551 15.0166 0.288227 17.9264C0.867006 20.8361 2.29562 23.5088 4.3934 25.6066C6.49119 27.7044 9.16394 29.133 12.0737 29.7118C14.9834 30.2906 17.9994 29.9935 20.7403 28.8582C23.4811 27.7229 25.8238 25.8003 27.472 23.3335C29.1203 20.8668 30 17.9667 30 15C29.9958 11.0231 28.4141 7.2102 25.6019 4.39808C22.7898 1.58595 18.977 0.0042353 15 0ZM15 27.858C12.4569 27.858 9.97097 27.1039 7.85648 25.691C5.742 24.2782 4.09395 22.27 3.12076 19.9205C2.14757 17.571 1.89294 14.9857 2.38907 12.4915C2.8852 9.99732 4.1098 7.70624 5.90803 5.90802C7.70625 4.1098 9.99733 2.88519 12.4915 2.38906C14.9857 1.89293 17.5711 2.14756 19.9205 3.12076C22.27 4.09395 24.2782 5.74199 25.691 7.85648C27.1039 9.97096 27.858 12.4569 27.858 15C27.8543 18.409 26.4984 21.6773 24.0879 24.0879C21.6774 26.4984 18.409 27.8543 15 27.858Z" fill="#453399"/>
<path d="M15.0037 7.85742C14.7194 7.85742 14.4467 7.97036 14.2456 8.1714C14.0446 8.37244 13.9317 8.64511 13.9317 8.92942V21.0714C13.9254 21.216 13.9485 21.3603 13.9995 21.4957C14.0505 21.631 14.1284 21.7547 14.2285 21.8592C14.3285 21.9637 14.4487 22.0468 14.5818 22.1036C14.7148 22.1604 14.858 22.1897 15.0027 22.1897C15.1473 22.1897 15.2905 22.1604 15.4236 22.1036C15.5566 22.0468 15.6768 21.9637 15.7769 21.8592C15.8769 21.7547 15.9548 21.631 16.0058 21.4957C16.0568 21.3603 16.0799 21.216 16.0737 21.0714V8.92942C16.0737 8.64546 15.961 8.37309 15.7604 8.17211C15.5598 7.97113 15.2876 7.85795 15.0037 7.85742Z" fill="#453399"/>
<path d="M21.0713 13.9278H8.92933C8.78479 13.9215 8.64048 13.9446 8.50509 13.9956C8.36971 14.0466 8.24605 14.1245 8.14156 14.2245C8.03708 14.3246 7.95393 14.4448 7.89712 14.5778C7.84032 14.7109 7.81104 14.8541 7.81104 14.9988C7.81104 15.1434 7.84032 15.2866 7.89712 15.4197C7.95393 15.5527 8.03708 15.6729 8.14156 15.773C8.24605 15.873 8.36971 15.9509 8.50509 16.0019C8.64048 16.0529 8.78479 16.076 8.92933 16.0698H21.0713C21.2159 16.076 21.3602 16.0529 21.4956 16.0019C21.6309 15.9509 21.7546 15.873 21.8591 15.773C21.9636 15.6729 22.0467 15.5527 22.1035 15.4197C22.1603 15.2866 22.1896 15.1434 22.1896 14.9988C22.1896 14.8541 22.1603 14.7109 22.1035 14.5778C22.0467 14.4448 21.9636 14.3246 21.8591 14.2245C21.7546 14.1245 21.6309 14.0466 21.4956 13.9956C21.3602 13.9446 21.2159 13.9215 21.0713 13.9278Z" fill="#453399"/>
</svg>
