<svg width="32" height="32" viewBox="0 0 32 32" fill="none" xmlns="http://www.w3.org/2000/svg">
<path d="M31.6051 29.7238L23.9083 22.0263C26.0999 19.3491 27.1788 15.9316 26.9216 12.4809C26.6644 9.0302 25.0908 5.8105 22.5264 3.48809C19.9621 1.16567 16.6033 -0.0816826 13.1451 0.00415351C9.68691 0.0899896 6.39409 1.50245 3.94804 3.94923C1.502 6.39601 0.0899627 9.68981 0.00415226 13.149C-0.0816582 16.6082 1.16532 19.968 3.48704 22.5331C5.80876 25.0983 9.0275 26.6724 12.4772 26.9297C15.9268 27.1869 19.3433 26.1078 22.0197 23.9154L29.7149 31.6002C29.8381 31.7258 29.985 31.8259 30.1471 31.8945C30.3091 31.9631 30.4832 31.999 30.6591 32C30.8351 32.001 31.0096 31.9671 31.1724 31.9004C31.3352 31.8336 31.4833 31.7353 31.6079 31.611C31.7326 31.4867 31.8314 31.339 31.8987 31.1763C31.966 31.0137 32.0004 30.8393 32 30.6633C31.9996 30.4872 31.9643 30.313 31.8963 30.1507C31.8282 29.9883 31.7287 29.8411 31.6035 29.7174L31.6051 29.7238ZM13.473 24.2805C11.3356 24.2792 9.24656 23.644 7.47001 22.4553C5.69345 21.2665 4.30913 19.5776 3.49206 17.6019C2.675 15.6263 2.46187 13.4527 2.87963 11.3559C3.29739 9.25909 4.32728 7.33327 5.83909 5.8219C7.3509 4.31054 9.27675 3.28148 11.3732 2.86484C13.4696 2.4482 15.6424 2.66267 17.617 3.48115C19.5916 4.29963 21.2792 5.68537 22.4665 7.46316C23.6539 9.24095 24.2876 11.331 24.2876 13.469C24.2846 16.3366 23.1441 19.0858 21.1164 21.1128C19.0887 23.1399 16.3397 24.2792 13.473 24.2805Z" fill="#888888"/>
</svg>
